<svg width="50" height="50" viewBox="0 0 50 50" fill="none" xmlns="http://www.w3.org/2000/svg">
<path d="M36.4584 36.4584L45.8334 45.8334M41.6668 22.9167C41.6668 17.9439 39.6913 13.1748 36.175 9.6585C32.6587 6.14219 27.8896 4.16675 22.9167 4.16675C17.9439 4.16675 13.1748 6.14219 9.6585 9.6585C6.14219 13.1748 4.16675 17.9439 4.16675 22.9167C4.16675 27.8896 6.14219 32.6587 9.6585 36.175C13.1748 39.6913 17.9439 41.6668 22.9167 41.6668C27.8896 41.6668 32.6587 39.6913 36.175 36.175C39.6913 32.6587 41.6668 27.8896 41.6668 22.9167Z" stroke="#FF6600" stroke-width="1.5" stroke-linecap="round" stroke-linejoin="round"/>
<path d="M13.5417 29.1667L17.3792 17.6542C17.4756 17.3669 17.6597 17.1172 17.9057 16.9402C18.1517 16.7632 18.4471 16.668 18.7501 16.668C19.0531 16.668 19.3485 16.7632 19.5944 16.9402C19.8404 17.1172 20.0246 17.3669 20.1209 17.6542L23.9584 29.1667M30.2084 16.6667V29.1667M15.6251 25.0001H21.8751" stroke="#FF6600" stroke-width="1.5" stroke-linecap="round" stroke-linejoin="round"/>
</svg>
