<svg width="123" height="35" viewBox="0 0 123 35" fill="none" xmlns="http://www.w3.org/2000/svg">
<path d="M0 32.4074C0 14.5093 14.5093 0 32.4074 0H120.407C121.839 0 123 1.16074 123 2.59259V2.59259C123 20.4907 108.491 35 90.5926 35H2.59259C1.16074 35 0 33.8393 0 32.4074V32.4074Z" fill="#FF6600"/>
<path d="M22.1222 24.5H20.4602L25.267 11.4091H26.9034L31.7102 24.5H30.0483L26.1364 13.4801H26.0341L22.1222 24.5ZM22.7358 19.3864H29.4347V20.7926H22.7358V19.3864ZM37.1994 14.6818V15.9602H32.1113V14.6818H37.1994ZM33.5943 12.3295H35.1028V21.6875C35.1028 22.1136 35.1646 22.4332 35.2882 22.6463C35.416 22.8551 35.5779 22.9957 35.774 23.0682C35.9743 23.1364 36.1852 23.1705 36.4068 23.1705C36.573 23.1705 36.7093 23.1619 36.8159 23.1449C36.9224 23.1236 37.0076 23.1065 37.0716 23.0938L37.3784 24.4489C37.2761 24.4872 37.1333 24.5256 36.9501 24.5639C36.7669 24.6065 36.5346 24.6278 36.2534 24.6278C35.8272 24.6278 35.4096 24.5362 35.0005 24.353C34.5957 24.1697 34.2591 23.8906 33.9906 23.5156C33.7264 23.1406 33.5943 22.6676 33.5943 22.0966V12.3295ZM51.8947 14.6818C51.818 14.0341 51.5069 13.5312 50.9615 13.1733C50.416 12.8153 49.747 12.6364 48.9544 12.6364C48.3748 12.6364 47.8677 12.7301 47.4331 12.9176C47.0027 13.1051 46.666 13.3629 46.4231 13.6911C46.1845 14.0192 46.0652 14.392 46.0652 14.8097C46.0652 15.1591 46.1483 15.4595 46.3145 15.7109C46.4849 15.9581 46.7022 16.1648 46.9664 16.331C47.2306 16.4929 47.5076 16.6271 47.7974 16.7337C48.0872 16.8359 48.3535 16.919 48.5964 16.983L49.926 17.3409C50.2669 17.4304 50.6461 17.554 51.0637 17.7116C51.4856 17.8693 51.8883 18.0845 52.2718 18.3572C52.6596 18.6257 52.9792 18.9709 53.2306 19.3928C53.4821 19.8146 53.6078 20.3324 53.6078 20.946C53.6078 21.6534 53.4224 22.2926 53.0517 22.8636C52.6852 23.4347 52.1483 23.8885 51.4409 24.2251C50.7377 24.5618 49.8833 24.7301 48.8777 24.7301C47.9402 24.7301 47.1284 24.5788 46.4423 24.2763C45.7605 23.9737 45.2235 23.5518 44.8315 23.0107C44.4437 22.4695 44.2243 21.8409 44.1731 21.125H45.8095C45.8521 21.6193 46.0183 22.0284 46.3081 22.3523C46.6021 22.6719 46.9728 22.9105 47.4203 23.0682C47.872 23.2216 48.3578 23.2983 48.8777 23.2983C49.4828 23.2983 50.0261 23.2003 50.5076 23.0043C50.9892 22.804 51.3706 22.527 51.6518 22.1733C51.9331 21.8153 52.0737 21.3977 52.0737 20.9205C52.0737 20.4858 51.9522 20.1321 51.7093 19.8594C51.4664 19.5866 51.1468 19.3651 50.7505 19.1946C50.3542 19.0241 49.926 18.875 49.4657 18.7472L47.8549 18.2869C46.8322 17.9929 46.0225 17.5732 45.426 17.0277C44.8294 16.4822 44.5311 15.7685 44.5311 14.8864C44.5311 14.1534 44.7292 13.5142 45.1255 12.9688C45.5261 12.419 46.063 11.9929 46.7363 11.6903C47.4139 11.3835 48.1703 11.2301 49.0055 11.2301C49.8493 11.2301 50.5993 11.3814 51.2555 11.6839C51.9118 11.9822 52.4316 12.3913 52.8152 12.9112C53.2029 13.4311 53.4075 14.0213 53.4288 14.6818L51.8947 14.6818ZM60.1261 24.7045C59.18 24.7045 58.364 24.4957 57.6779 24.0781C56.9961 23.6562 56.4698 23.0682 56.0991 22.3139C55.7326 21.5554 55.5494 20.6733 55.5494 19.6676C55.5494 18.6619 55.7326 17.7756 56.0991 17.0085C56.4698 16.2372 56.9854 15.6364 57.646 15.206C58.3107 14.7713 59.0863 14.554 59.9727 14.554C60.484 14.554 60.989 14.6392 61.4876 14.8097C61.9862 14.9801 62.44 15.2571 62.8491 15.6406C63.2582 16.0199 63.5842 16.5227 63.8271 17.1491C64.07 17.7756 64.1914 18.5469 64.1914 19.4631V20.1023H56.6232V18.7983H62.6573C62.6573 18.2443 62.5465 17.75 62.3249 17.3153C62.1076 16.8807 61.7965 16.5376 61.3917 16.2862C60.9911 16.0348 60.5181 15.9091 59.9727 15.9091C59.3718 15.9091 58.8519 16.0582 58.413 16.3565C57.9783 16.6506 57.6438 17.0341 57.4094 17.5071C57.1751 17.9801 57.0579 18.4872 57.0579 19.0284V19.8977C57.0579 20.6392 57.1857 21.2678 57.4414 21.7834C57.7013 22.2947 58.0614 22.6847 58.5217 22.9531C58.9819 23.2173 59.5167 23.3494 60.1261 23.3494C60.5224 23.3494 60.8803 23.294 61.1999 23.1832C61.5238 23.0682 61.8029 22.8977 62.0373 22.6719C62.2717 22.4418 62.4528 22.1562 62.5806 21.8153L64.038 22.2244C63.8846 22.7188 63.6268 23.1534 63.2646 23.5284C62.9023 23.8991 62.4549 24.1889 61.9222 24.3977C61.3896 24.6023 60.7908 24.7045 60.1261 24.7045ZM69.3754 24.7301C68.7532 24.7301 68.1886 24.6129 67.6815 24.3786C67.1744 24.1399 66.7717 23.7969 66.4734 23.3494C66.1751 22.8977 66.0259 22.3523 66.0259 21.7131C66.0259 21.1506 66.1367 20.6946 66.3583 20.3452C66.5799 19.9915 66.8761 19.7145 67.2468 19.5142C67.6175 19.3139 68.0266 19.1648 68.4741 19.0668C68.9258 18.9645 69.3796 18.8835 69.8356 18.8239C70.4322 18.7472 70.9158 18.6896 71.2866 18.6513C71.6616 18.6087 71.9343 18.5384 72.1048 18.4403C72.2795 18.3423 72.3668 18.1719 72.3668 17.929V17.8778C72.3668 17.2472 72.1942 16.7571 71.8491 16.4077C71.5082 16.0582 70.9904 15.8835 70.2958 15.8835C69.5756 15.8835 69.011 16.0412 68.6019 16.3565C68.1928 16.6719 67.9052 17.0085 67.739 17.3665L66.3072 16.8551C66.5629 16.2585 66.9038 15.794 67.3299 15.4616C67.7603 15.125 68.229 14.8906 68.7362 14.7585C69.2475 14.6222 69.7504 14.554 70.2447 14.554C70.56 14.554 70.9222 14.5923 71.3313 14.669C71.7447 14.7415 72.1431 14.8928 72.5266 15.1229C72.9144 15.353 73.2362 15.7003 73.4918 16.1648C73.7475 16.6293 73.8754 17.2514 73.8754 18.0312V24.5H72.3668V23.1705H72.2901C72.1879 23.3835 72.0174 23.6115 71.7788 23.8544C71.5401 24.0973 71.2227 24.304 70.8263 24.4744C70.43 24.6449 69.9464 24.7301 69.3754 24.7301ZM69.6055 23.375C70.2021 23.375 70.7049 23.2578 71.114 23.0234C71.5273 22.7891 71.8384 22.4865 72.0472 22.1158C72.2603 21.745 72.3668 21.3551 72.3668 20.946V19.5653C72.3029 19.642 72.1623 19.7124 71.945 19.7763C71.7319 19.8359 71.4847 19.8892 71.2035 19.9361C70.9265 19.9787 70.6559 20.017 70.3917 20.0511C70.1317 20.081 69.9208 20.1065 69.7589 20.1278C69.3668 20.179 69.0004 20.2621 68.6594 20.3771C68.3228 20.4879 68.0501 20.6562 67.8413 20.8821C67.6367 21.1037 67.5344 21.4062 67.5344 21.7898C67.5344 22.3139 67.7283 22.7102 68.1161 22.9787C68.5082 23.2429 69.0046 23.375 69.6055 23.375ZM76.6287 24.5V14.6818H78.0861V16.1648H78.1884C78.3674 15.679 78.6912 15.2848 79.16 14.9822C79.6287 14.6797 80.1571 14.5284 80.7452 14.5284C80.856 14.5284 80.9945 14.5305 81.1607 14.5348C81.3269 14.5391 81.4526 14.5455 81.5378 14.554V16.0881C81.4867 16.0753 81.3695 16.0561 81.1863 16.0305C81.0073 16.0007 80.8176 15.9858 80.6174 15.9858C80.1401 15.9858 79.714 16.0859 79.339 16.2862C78.9682 16.4822 78.6742 16.755 78.4569 17.1044C78.2438 17.4496 78.1373 17.8437 78.1373 18.2869V24.5H76.6287ZM87.0158 24.7045C86.0953 24.7045 85.3027 24.4872 84.638 24.0526C83.9732 23.6179 83.4618 23.0192 83.1039 22.2564C82.7459 21.4936 82.5669 20.6222 82.5669 19.642C82.5669 18.6449 82.7502 17.7649 83.1167 17.0021C83.4874 16.2351 84.003 15.6364 84.6635 15.206C85.3283 14.7713 86.1039 14.554 86.9902 14.554C87.6806 14.554 88.3027 14.6818 88.8567 14.9375C89.4107 15.1932 89.8645 15.5511 90.2182 16.0114C90.5719 16.4716 90.7914 17.0085 90.8766 17.6222H89.3681C89.253 17.1747 88.9973 16.7784 88.601 16.4332C88.209 16.0838 87.6806 15.9091 87.0158 15.9091C86.4277 15.9091 85.9121 16.0625 85.4689 16.3693C85.03 16.6719 84.687 17.1001 84.4398 17.6541C84.1969 18.2038 84.0755 18.8494 84.0755 19.5909C84.0755 20.3494 84.1948 21.0099 84.4334 21.5724C84.6763 22.1349 85.0172 22.5717 85.4561 22.8828C85.8993 23.1939 86.4192 23.3494 87.0158 23.3494C87.4078 23.3494 87.7637 23.2813 88.0833 23.1449C88.4029 23.0085 88.6735 22.8125 88.8951 22.5568C89.1167 22.3011 89.2743 21.9943 89.3681 21.6364H90.8766C90.7914 22.2159 90.5804 22.7379 90.2438 23.2024C89.9114 23.6626 89.4703 24.0291 88.9206 24.3018C88.3752 24.5703 87.7402 24.7045 87.0158 24.7045ZM94.5904 18.5938V24.5H93.0819V11.4091H94.5904V16.2159H94.7182C94.9483 15.7088 95.2935 15.3061 95.7537 15.0078C96.2182 14.7053 96.8361 14.554 97.6074 14.554C98.2765 14.554 98.8624 14.6882 99.3652 14.9567C99.8681 15.2209 100.258 15.6278 100.535 16.1776C100.816 16.723 100.957 17.4176 100.957 18.2614V24.5H99.4483V18.3636C99.4483 17.5838 99.2459 16.9808 98.8411 16.5547C98.4405 16.1243 97.8844 15.9091 97.1728 15.9091C96.6784 15.9091 96.2353 16.0135 95.8432 16.2223C95.4554 16.4311 95.1486 16.7358 94.9228 17.1364C94.7012 17.5369 94.5904 18.0227 94.5904 18.5938Z" fill="#FFEFDD"/>
</svg>
