<svg width="80" height="81" viewBox="0 0 80 81" fill="none" xmlns="http://www.w3.org/2000/svg">
<path d="M40 60.5002C41.7681 60.5002 43.4638 61.2025 44.714 62.4528C45.9642 63.703 46.6666 65.3987 46.6666 67.1668C46.6666 68.9349 45.9642 70.6306 44.714 71.8809C43.4638 73.1311 41.7681 73.8335 40 73.8335C38.2318 73.8335 36.5362 73.1311 35.2859 71.8809C34.0357 70.6306 33.3333 68.9349 33.3333 67.1668C33.3333 65.3987 34.0357 63.703 35.2859 62.4528C36.5362 61.2025 38.2318 60.5002 40 60.5002ZM40 60.5002L40 50.5002C40 49.6161 40.3511 48.7683 40.9763 48.1431C41.6014 47.518 42.4492 47.1668 43.3333 47.1668L63.3333 47.1668C64.2173 47.1668 65.0652 47.518 65.6903 48.1431C66.3154 48.7683 66.6666 49.6161 66.6666 50.5002L66.6666 60.5002M66.6666 60.5002C68.4347 60.5002 70.1304 61.2025 71.3807 62.4528C72.6309 63.703 73.3333 65.3987 73.3333 67.1668C73.3333 68.9349 72.6309 70.6306 71.3807 71.8809C70.1304 73.1311 68.4347 73.8335 66.6666 73.8335C64.8985 73.8335 63.2028 73.1311 61.9526 71.8809C60.7023 70.6306 60 68.9349 60 67.1668C60 65.3987 60.7023 63.703 61.9526 62.4528C63.2028 61.2025 64.8985 60.5002 66.6666 60.5002ZM13.3333 73.8335C15.1014 73.8335 16.7971 73.1311 18.0473 71.8809C19.2976 70.6306 20 68.9349 20 67.1668C20 65.3987 19.2976 63.703 18.0473 62.4528C16.7971 61.2025 15.1014 60.5002 13.3333 60.5002C11.5652 60.5002 9.86949 61.2025 8.61925 62.4528C7.369 63.703 6.66663 65.3987 6.66663 67.1668C6.66663 68.9349 7.369 70.6306 8.61925 71.8809C9.86949 73.1311 11.5652 73.8335 13.3333 73.8335ZM33.3333 20.5002C35.1014 20.5002 36.7971 19.7978 38.0473 18.5475C39.2976 17.2973 40 15.6016 40 13.8335C40 12.0654 39.2976 10.3697 38.0473 9.11945C36.7971 7.86921 35.1014 7.16683 33.3333 7.16683C31.5652 7.16683 29.8695 7.86921 28.6192 9.11945C27.369 10.3697 26.6666 12.0654 26.6666 13.8335C26.6666 15.6016 27.369 17.2973 28.6192 18.5475C29.8695 19.7978 31.5652 20.5002 33.3333 20.5002Z" stroke="#3C3C3C" stroke-width="2" stroke-linecap="round" stroke-linejoin="round"/>
<path d="M13.3333 60.5L13.3333 37.1667C13.3333 36.2826 13.6844 35.4348 14.3096 34.8096C14.9347 34.1845 15.7825 33.8333 16.6666 33.8333L33.3333 33.8333M53.3333 43.8333L53.3332 37.1667C53.3332 36.2826 52.9821 35.4348 52.3569 34.8096C51.7318 34.1845 50.884 33.8333 49.9999 33.8333L33.3333 33.8333M33.3333 33.8333L33.3332 20.5" stroke="#FF6600" stroke-width="2" stroke-linecap="round" stroke-linejoin="round"/>
</svg>
