<svg width="80" height="81" viewBox="0 0 80 81" fill="none" xmlns="http://www.w3.org/2000/svg">
<path d="M68.3333 68.8333L73.3333 73.8333M50 60.5C50 63.1522 51.0536 65.6957 52.9289 67.5711C54.8043 69.4464 57.3478 70.5 60 70.5C62.6522 70.5 65.1957 69.4464 67.0711 67.5711C68.9464 65.6957 70 63.1522 70 60.5C70 57.8478 68.9464 55.3043 67.0711 53.4289C65.1957 51.5536 62.6522 50.5 60 50.5C57.3478 50.5 54.8043 51.5536 52.9289 53.4289C51.0536 55.3043 50 57.8478 50 60.5Z" stroke="#FF6600" stroke-width="1.5" stroke-linecap="round" stroke-linejoin="round"/>
<path d="M66.6666 40.4998V19.6632C66.6668 19.4001 66.6151 19.1395 66.5144 18.8964C66.4137 18.6533 66.2661 18.4324 66.0799 18.2465L55.5866 7.75317C55.2119 7.37799 54.7035 7.16697 54.1733 7.1665H15.3333C14.8028 7.1665 14.2941 7.37722 13.919 7.75229C13.544 8.12736 13.3333 8.63607 13.3333 9.1665V71.8332C13.3333 72.3636 13.544 72.8723 13.919 73.2474C14.2941 73.6225 14.8028 73.8332 15.3333 73.8332H36.6666" stroke="#3C3C3C" stroke-width="1.5" stroke-linecap="round" stroke-linejoin="round"/>
<path d="M53.3333 7.1665V18.4998C53.3333 19.0303 53.544 19.539 53.919 19.9141C54.2941 20.2891 54.8028 20.4998 55.3333 20.4998H66.6666" stroke="#3C3C3C" stroke-width="1.5" stroke-linecap="round" stroke-linejoin="round"/>
</svg>
