<svg width="80" height="81" viewBox="0 0 80 81" fill="none" xmlns="http://www.w3.org/2000/svg">
<path d="M23.3335 20.5H56.6668M23.3335 30.5H56.6668M30.0002 57.1667H50.0002" stroke="#FF6600" stroke-width="1.5" stroke-linecap="round" stroke-linejoin="round"/>
<path d="M10.0001 40.4998H8.66675C8.13631 40.4998 7.62761 40.7105 7.25253 41.0856C6.87746 41.4607 6.66675 41.9694 6.66675 42.4998V71.8332C6.66675 72.0958 6.71848 72.3559 6.81899 72.5985C6.9195 72.8412 7.06682 73.0617 7.25253 73.2474C7.43825 73.4331 7.65873 73.5804 7.90138 73.6809C8.14403 73.7814 8.4041 73.8332 8.66675 73.8332H71.3334C71.5961 73.8332 71.8561 73.7814 72.0988 73.6809C72.3414 73.5804 72.5619 73.4331 72.7476 73.2474C72.9333 73.0617 73.0807 72.8412 73.1812 72.5985C73.2817 72.3559 73.3334 72.0958 73.3334 71.8332V42.4998C73.3334 41.9694 73.1227 41.4607 72.7476 41.0856C72.3726 40.7105 71.8638 40.4998 71.3334 40.4998H70.0001M10.0001 40.4998V9.1665C10.0001 8.63607 10.2108 8.12736 10.5859 7.75229C10.9609 7.37722 11.4696 7.1665 12.0001 7.1665H68.0001C68.5305 7.1665 69.0392 7.37722 69.4143 7.75229C69.7894 8.12736 70.0001 8.63607 70.0001 9.1665V40.4998M10.0001 40.4998H70.0001" stroke="#3C3C3C" stroke-width="1.5"/>
</svg>
