<svg width="50" height="50" viewBox="0 0 50 50" fill="none" xmlns="http://www.w3.org/2000/svg">
<path d="M17.8571 10.7142V1.78564M32.1428 10.7142V1.78564M10.7142 32.1428H1.78564M10.7142 17.8571H1.78564M32.1428 39.2856V48.2142M17.8571 39.2856V48.2142M39.2856 17.8571H48.2142M39.2856 32.1428H48.2142M30.3571 26.7856H23.2142M35.7142 10.7142H14.2856C13.3384 10.7142 12.43 11.0905 11.7603 11.7603C11.0905 12.43 10.7142 13.3384 10.7142 14.2856V35.7142C10.7142 36.6614 11.0905 37.5698 11.7603 38.2396C12.43 38.9094 13.3384 39.2856 14.2856 39.2856H35.7142C36.6614 39.2856 37.5698 38.9094 38.2396 38.2396C38.9094 37.5698 39.2856 36.6614 39.2856 35.7142V14.2856C39.2856 13.3384 38.9094 12.43 38.2396 11.7603C37.5698 11.0905 36.6614 10.7142 35.7142 10.7142Z" stroke="#FF6600" stroke-linecap="round" stroke-linejoin="round"/>
</svg>
