<svg width="50" height="50" viewBox="0 0 50 50" fill="none" xmlns="http://www.w3.org/2000/svg">
<path d="M41.6666 45.8335V39.5835C41.6666 33.6918 41.6666 30.7439 39.8353 28.9147C38.0062 27.0835 35.0583 27.0835 29.1666 27.0835L24.9999 31.2502L20.8333 27.0835C14.9416 27.0835 11.9937 27.0835 10.1645 28.9147C8.33325 30.7439 8.33325 33.6918 8.33325 39.5835V45.8335M33.3333 27.0835V38.5418" stroke="#FF6600" stroke-width="1.5" stroke-linecap="round" stroke-linejoin="round"/>
<path d="M17.7082 27.0834V35.4167M17.7082 35.4167C18.8132 35.4167 19.873 35.8557 20.6544 36.6371C21.4359 37.4185 21.8748 38.4783 21.8748 39.5834V41.6667M17.7082 35.4167C16.6031 35.4167 15.5433 35.8557 14.7619 36.6371C13.9805 37.4185 13.5415 38.4783 13.5415 39.5834V41.6667M32.2915 13.5417V11.4584C32.2915 10.5009 32.1029 9.55268 31.7365 8.66801C31.37 7.78335 30.8329 6.97952 30.1558 6.30243C29.4787 5.62533 28.6749 5.08823 27.7902 4.72179C26.9056 4.35535 25.9574 4.16675 24.9998 4.16675C24.0423 4.16675 23.0941 4.35535 22.2094 4.72179C21.3248 5.08823 20.5209 5.62533 19.8439 6.30243C19.1668 6.97952 18.6297 7.78335 18.2632 8.66801C17.8968 9.55268 17.7082 10.5009 17.7082 11.4584V13.5417C17.7082 14.4993 17.8968 15.4475 18.2632 16.3321C18.6297 17.2168 19.1668 18.0206 19.8439 18.6977C20.5209 19.3748 21.3248 19.9119 22.2094 20.2784C23.0941 20.6448 24.0423 20.8334 24.9998 20.8334C25.9574 20.8334 26.9056 20.6448 27.7902 20.2784C28.6749 19.9119 29.4787 19.3748 30.1558 18.6977C30.8329 18.0206 31.37 17.2168 31.7365 16.3321C32.1029 15.4475 32.2915 14.4993 32.2915 13.5417ZM34.8957 40.1042C34.8957 40.5186 34.7311 40.9161 34.438 41.2091C34.145 41.5021 33.7476 41.6667 33.3332 41.6667C32.9188 41.6667 32.5213 41.5021 32.2283 41.2091C31.9353 40.9161 31.7707 40.5186 31.7707 40.1042C31.7707 39.6898 31.9353 39.2924 32.2283 38.9994C32.5213 38.7064 32.9188 38.5417 33.3332 38.5417C33.7476 38.5417 34.145 38.7064 34.438 38.9994C34.7311 39.2924 34.8957 39.6898 34.8957 40.1042Z" stroke="#FF6600" stroke-width="1.5" stroke-linecap="round" stroke-linejoin="round"/>
</svg>
