<svg width="51" height="50" viewBox="0 0 51 50" fill="none" xmlns="http://www.w3.org/2000/svg">
<path d="M18.208 8.33337H12.9997C11.8946 8.33337 10.8348 8.77236 10.0534 9.55376C9.27199 10.3352 8.83301 11.395 8.83301 12.5V41.6667C8.83301 42.7718 9.27199 43.8316 10.0534 44.613C10.8348 45.3944 11.8946 45.8334 12.9997 45.8334H25.4997M32.7913 8.33337H37.9997C39.1047 8.33337 40.1645 8.77236 40.946 9.55376C41.7274 10.3352 42.1663 11.395 42.1663 12.5V31.25" stroke="#3C3C3C" stroke-width="1.5" stroke-linecap="round"/>
<path d="M17.166 13.3334V9.37504C17.166 9.09877 17.2758 8.83382 17.4711 8.63847C17.6665 8.44312 17.9314 8.33337 18.2077 8.33337C18.7827 8.33337 19.2577 7.86671 19.3577 7.30004C19.666 5.52504 20.8618 2.08337 25.4993 2.08337C30.1368 2.08337 31.3327 5.52504 31.641 7.30004C31.741 7.86671 32.216 8.33337 32.791 8.33337C33.0673 8.33337 33.3322 8.44312 33.5276 8.63847C33.7229 8.83382 33.8327 9.09877 33.8327 9.37504V13.3334C33.8327 13.6649 33.701 13.9828 33.4666 14.2173C33.2321 14.4517 32.9142 14.5834 32.5827 14.5834H18.416C18.0845 14.5834 17.7666 14.4517 17.5321 14.2173C17.2977 13.9828 17.166 13.6649 17.166 13.3334Z" stroke="#3C3C3C" stroke-width="1.5" stroke-linecap="round"/>
<path d="M32.791 42.7085L36.9577 46.8752L47.3743 36.4585" stroke="#FF6600" stroke-width="1.5" stroke-linecap="round" stroke-linejoin="round"/>
</svg>
