<svg width="50" height="50" viewBox="0 0 50 50" fill="none" xmlns="http://www.w3.org/2000/svg">
<path d="M5.72925 29.1667H44.2709M18.9792 37.0438V40.1043C18.9792 41.2093 18.5403 42.2691 17.7589 43.0505C16.9775 43.8319 15.9177 44.2709 14.8126 44.2709H13.5626M31.0209 37.0438V40.1043C31.0209 41.2093 31.4599 42.2691 32.2413 43.0505C33.0227 43.8319 34.0825 44.2709 35.1876 44.2709H36.4376M13.5584 44.2709H36.4418M5.72925 13.0209C5.72925 11.087 6.49747 9.23238 7.86493 7.86493C9.23238 6.49747 11.087 5.72925 13.0209 5.72925H36.9793C38.9131 5.72925 40.7678 6.49747 42.1352 7.86493C43.5027 9.23238 44.2709 11.087 44.2709 13.0209V29.7522C44.2709 31.686 43.5027 33.5407 42.1352 34.9082C40.7678 36.2756 38.9131 37.0438 36.9793 37.0438H13.0209C11.087 37.0438 9.23238 36.2756 7.86493 34.9082C6.49747 33.5407 5.72925 31.686 5.72925 29.7522V13.0209Z" stroke="#FF6600" stroke-width="1.5" stroke-linecap="round" stroke-linejoin="round"/>
</svg>
